<svg id="レイヤー_1" data-name="レイヤー 1" xmlns="http://www.w3.org/2000/svg" viewBox="0 0 381.42 405.93"><defs><style>.cls-1{fill:#ff7b7b;}.cls-2{fill:#7bff81;}.cls-3{fill:#7b87ff;}</style></defs><title>sofme_icon</title><path class="cls-1" d="M282.75,252.32A111.32,111.32,0,0,1,386,256.61q4,2.29,7.68,4.86A111.42,111.42,0,1,0,219,160.67q4.27,2,8.43,4.4A111.27,111.27,0,0,1,282.75,252.32Z" transform="translate(-60.29 -58.6)"/><path class="cls-2" d="M233.79,297.39a110.94,110.94,0,0,1,32.84-35.76,111.25,111.25,0,0,1-48-91.62c0-3.14.14-6.26.39-9.34a111.41,111.41,0,1,0,.25,201.66A110.88,110.88,0,0,1,233.79,297.39Z" transform="translate(-60.29 -58.6)"/><path class="cls-3" d="M393.66,261.47a111.53,111.53,0,0,1-110.9,9.45,111.52,111.52,0,0,1-63.51,91.41A111.41,111.41,0,1,0,393.66,261.47Z" transform="translate(-60.29 -58.6)"/></svg>