<?xml version="1.0" standalone="no"?>
<!DOCTYPE svg PUBLIC "-//W3C//DTD SVG 20010904//EN"
 "http://www.w3.org/TR/2001/REC-SVG-20010904/DTD/svg10.dtd">
<svg version="1.0" xmlns="http://www.w3.org/2000/svg"
 width="1280.000000pt" height="720.000000pt" viewBox="0 0 1280.000000 720.000000"
 preserveAspectRatio="xMidYMid meet">

<g transform="translate(0.000000,720.000000) scale(0.100000,-0.100000)"
fill="#000000" stroke="none">
<path d="M5509 4653 c-39 -123 -143 -283 -254 -393 -41 -41 -75 -78 -75 -81 0
-10 186 -169 198 -169 13 0 162 158 203 215 32 45 34 46 84 43 l50 -3 63 -124
c34 -69 64 -126 66 -129 7 -6 256 78 256 87 0 3 -20 42 -45 85 -25 44 -45 81
-45 82 0 2 69 5 153 6 l152 3 0 105 0 105 -282 3 c-156 1 -283 4 -283 6 0 2
16 38 35 80 34 76 34 76 12 80 -24 5 -253 36 -267 36 -5 0 -14 -17 -21 -37z"/>
<path d="M6544 4674 c-63 -179 -118 -294 -197 -412 l-55 -82 92 -57 91 -58
-122 -3 -123 -3 0 -64 0 -65 -400 0 -400 0 0 -90 0 -90 400 0 400 0 0 -65 0
-65 -550 0 -551 0 3 -92 3 -93 548 -3 547 -2 0 -60 0 -60 -400 0 -400 0 0 -90
0 -90 400 0 400 0 0 -65 0 -65 -460 0 -460 0 0 -95 0 -95 460 0 460 0 0 -65 0
-65 -540 0 -540 0 0 -100 0 -100 540 0 540 0 2 -162 3 -163 142 -3 143 -3 2
163 3 163 548 3 547 2 0 100 0 100 -550 0 -550 0 0 65 0 65 473 2 472 3 3 92
3 93 -473 2 -473 3 -3 63 -3 62 416 0 415 0 0 150 0 150 145 0 145 0 0 95 0
95 -145 0 -145 0 0 155 0 155 -412 2 -413 3 -3 62 c-3 60 -1 64 46 130 27 37
59 85 71 106 23 37 23 37 90 37 l68 0 51 -92 c28 -51 59 -110 68 -131 11 -22
23 -36 31 -33 7 3 67 20 133 37 66 18 120 37 120 43 0 6 -25 48 -55 94 l-55
82 250 0 250 0 0 110 0 110 -409 2 -409 3 30 74 c19 50 25 76 18 81 -6 4 -54
12 -108 19 -53 7 -112 15 -129 18 -26 4 -34 1 -39 -13z m516 -989 l0 -65 -270
0 -270 0 0 65 0 65 270 0 270 0 0 -65z m0 -315 l0 -60 -270 0 -270 0 0 60 0
60 270 0 270 0 0 -60z"/>
<path d="M3010 4530 l0 -140 -215 0 -215 0 0 -115 0 -115 215 0 215 0 0 -110
0 -110 -265 0 -265 0 0 -115 0 -115 99 0 99 0 31 -92 c27 -84 61 -206 61 -222
0 -3 -56 -6 -125 -6 l-125 0 0 -115 0 -115 245 0 245 0 0 -120 0 -120 -225 0
-225 0 0 -115 0 -115 225 0 225 0 2 -267 3 -268 135 0 135 0 3 268 2 267 205
0 205 0 0 115 0 115 -205 0 -205 0 0 120 0 120 220 0 220 0 0 115 0 115 -115
0 c-63 0 -115 3 -115 6 0 3 18 56 40 117 22 62 44 131 50 155 l11 42 89 0 90
0 0 100 0 100 120 0 121 0 -5 -32 c-3 -18 -8 -80 -11 -138 -3 -58 -8 -124 -11
-147 l-6 -42 -81 69 c-44 39 -83 68 -86 64 -3 -3 -36 -51 -72 -107 l-67 -101
47 -40 c25 -22 85 -79 133 -126 l88 -85 -25 -100 c-71 -297 -187 -528 -355
-708 l-70 -75 102 -100 101 -99 69 76 c152 167 282 398 359 634 23 70 45 124
49 120 5 -4 46 -59 93 -121 l86 -113 24 38 c13 21 39 65 58 98 l34 60 7 -60
c31 -238 89 -478 145 -591 85 -174 237 -169 323 11 47 98 76 234 104 476 l5
45 -89 75 c-49 40 -93 75 -97 76 -5 2 -14 -50 -21 -114 -13 -126 -38 -263 -52
-276 -4 -5 -15 31 -24 80 -49 270 -60 482 -54 1046 l5 467 -216 0 -216 0 3
250 3 250 -129 0 -129 0 -6 -112 c-4 -62 -7 -175 -7 -250 l0 -138 -160 0 -160
0 0 -115 0 -115 -210 0 -210 0 0 110 0 110 198 2 197 3 3 113 3 112 -201 0
-200 0 0 140 0 140 -140 0 -140 0 0 -140z m1449 -1005 c0 -212 3 -409 7 -438
7 -59 11 -62 -76 43 -35 41 -85 98 -111 125 l-48 50 14 120 c7 66 16 165 19
220 4 55 9 137 12 183 l6 82 89 0 88 0 0 -385z m-1123 158 c-4 -16 -25 -88
-48 -160 l-41 -133 -113 0 -112 0 -17 73 c-10 39 -30 111 -45 160 l-28 87 205
0 205 0 -6 -27z"/>
<path d="M8880 4435 l0 -235 -470 0 -470 0 0 -695 0 -695 145 0 145 0 0 100 0
100 325 0 325 0 2 -427 3 -428 148 -3 147 -3 0 431 0 430 335 0 335 0 0 -90 0
-90 145 0 145 0 0 685 0 685 -480 0 -480 0 0 235 0 235 -150 0 -150 0 0 -235z
m0 -835 l0 -330 -325 0 -325 0 0 330 0 330 325 0 325 0 0 -330z m970 0 l0
-330 -335 0 -335 0 0 330 0 330 335 0 335 0 0 -330z"/>
</g>
</svg>
